<svg width="177" height="306" viewBox="0 0 177 306" fill="none" xmlns="http://www.w3.org/2000/svg">
<path fill-rule="evenodd" clip-rule="evenodd" d="M58.1605 87.9598C54.2154 77.8824 50.7692 68.2874 50.7692 60.6617C50.7692 68.5274 53.1598 78.0797 58.1605 87.9598Z" fill="white"/>
<path d="M88.0358 0C155.644 -4.24916e-06 176.072 149.066 176.072 149.066C110.333 149.066 72.9036 117.089 58.1605 87.9598C54.2154 77.8824 50.7692 68.2874 50.7692 60.6617C50.7692 68.5274 53.1598 78.0797 58.1605 87.9598C58.6756 89.2758 59.1993 90.5999 59.7249 91.929C72.6662 124.653 86.7863 160.358 4.1306 149.63L0 149.066C0 149.066 20.4276 4.24916e-06 88.0358 0Z" fill="white"/>
<path fill-rule="evenodd" clip-rule="evenodd" d="M117.911 218.04C121.856 228.118 125.302 237.713 125.302 245.338C125.302 237.473 122.912 227.92 117.911 218.04Z" fill="white"/>
<path d="M88.0358 306C20.4276 306 -1.08048e-05 156.934 -1.08048e-05 156.934C65.7383 156.934 103.168 188.911 117.911 218.04C121.856 228.118 125.302 237.713 125.302 245.338C125.302 237.473 122.912 227.92 117.911 218.04C117.396 216.724 116.872 215.4 116.347 214.071C103.405 181.347 89.2852 145.642 171.941 156.37L176.072 156.934C176.072 156.934 155.644 306 88.0358 306Z" fill="white"/>
</svg>
