<svg width="786" height="413" viewBox="0 0 786 413" fill="none" xmlns="http://www.w3.org/2000/svg">
<path d="M182.286 387.625C182.286 382.566 183.298 378.161 185.321 374.411C187.345 370.602 190.143 367.685 193.714 365.661C197.285 363.578 201.363 362.536 205.946 362.536C211.958 362.536 216.898 364.024 220.767 367.001C224.696 369.977 227.226 374.024 228.357 379.143H221.66C220.827 375.631 219.011 372.893 216.214 370.929C213.476 368.905 210.053 367.893 205.946 367.893C202.672 367.893 199.726 368.637 197.107 370.125C194.488 371.614 192.405 373.846 190.857 376.822C189.369 379.738 188.625 383.34 188.625 387.625C188.625 391.911 189.369 395.542 190.857 398.518C192.405 401.494 194.488 403.726 197.107 405.214C199.726 406.702 202.672 407.446 205.946 407.446C210.053 407.446 213.476 406.464 216.214 404.5C219.011 402.476 220.827 399.679 221.66 396.107H228.357C227.226 401.107 224.696 405.125 220.767 408.161C216.839 411.196 211.898 412.714 205.946 412.714C201.363 412.714 197.285 411.702 193.714 409.679C190.143 407.595 187.345 404.679 185.321 400.929C183.298 397.119 182.286 392.685 182.286 387.625ZM310.791 385.125C310.791 387.268 310.732 388.905 310.613 390.036H270.167C270.345 393.726 271.238 396.881 272.845 399.5C274.453 402.119 276.566 404.113 279.185 405.482C281.804 406.792 284.661 407.446 287.756 407.446C291.804 407.446 295.196 406.464 297.934 404.5C300.732 402.536 302.577 399.887 303.47 396.554H310.077C308.887 401.316 306.327 405.214 302.399 408.25C298.53 411.226 293.649 412.714 287.756 412.714C283.173 412.714 279.066 411.702 275.435 409.679C271.804 407.595 268.947 404.679 266.863 400.929C264.84 397.119 263.828 392.685 263.828 387.625C263.828 382.566 264.84 378.131 266.863 374.322C268.887 370.512 271.715 367.596 275.345 365.572C278.976 363.548 283.113 362.536 287.756 362.536C292.399 362.536 296.446 363.548 299.899 365.572C303.411 367.596 306.089 370.334 307.934 373.786C309.839 377.179 310.791 380.959 310.791 385.125ZM304.452 384.947C304.512 381.316 303.768 378.221 302.22 375.661C300.732 373.102 298.678 371.167 296.059 369.858C293.44 368.548 290.583 367.893 287.488 367.893C282.845 367.893 278.887 369.381 275.613 372.358C272.339 375.334 270.524 379.53 270.167 384.947H304.452ZM371.868 362.358C377.702 362.358 382.464 364.173 386.154 367.804C389.844 371.375 391.69 376.584 391.69 383.429V412H385.529V384.143C385.529 378.846 384.19 374.798 381.511 372C378.892 369.203 375.291 367.804 370.708 367.804C366.005 367.804 362.255 369.292 359.458 372.268C356.66 375.244 355.261 379.619 355.261 385.393V412H349.012V363.251H355.261V371.554C356.809 368.578 359.041 366.316 361.958 364.768C364.874 363.161 368.178 362.358 371.868 362.358ZM440.422 368.518V398.786C440.422 401.762 440.988 403.816 442.119 404.947C443.25 406.077 445.244 406.643 448.101 406.643H453.815V412H447.119C442.714 412 439.44 410.988 437.297 408.964C435.155 406.881 434.083 403.488 434.083 398.786V368.518H427.297V363.251H434.083V351.019H440.422V363.251H453.815V368.518H440.422ZM535.015 385.125C535.015 387.268 534.955 388.905 534.836 390.036H494.39C494.569 393.726 495.461 396.881 497.069 399.5C498.676 402.119 500.789 404.113 503.408 405.482C506.027 406.792 508.884 407.446 511.979 407.446C516.027 407.446 519.419 406.464 522.158 404.5C524.955 402.536 526.8 399.887 527.693 396.554H534.3C533.11 401.316 530.55 405.214 526.622 408.25C522.753 411.226 517.872 412.714 511.979 412.714C507.396 412.714 503.289 411.702 499.658 409.679C496.027 407.595 493.17 404.679 491.086 400.929C489.063 397.119 488.051 392.685 488.051 387.625C488.051 382.566 489.063 378.131 491.086 374.322C493.11 370.512 495.938 367.596 499.569 365.572C503.199 363.548 507.336 362.536 511.979 362.536C516.622 362.536 520.669 363.548 524.122 365.572C527.634 367.596 530.312 370.334 532.157 373.786C534.062 377.179 535.015 380.959 535.015 385.125ZM528.675 384.947C528.735 381.316 527.991 378.221 526.443 375.661C524.955 373.102 522.902 371.167 520.283 369.858C517.664 368.548 514.806 367.893 511.711 367.893C507.068 367.893 503.11 369.381 499.836 372.358C496.563 375.334 494.747 379.53 494.39 384.947H528.675ZM579.485 371.911C580.854 368.876 582.937 366.524 585.735 364.858C588.592 363.191 592.074 362.358 596.181 362.358V368.876H594.484C589.961 368.876 586.33 370.096 583.592 372.536C580.854 374.977 579.485 379.054 579.485 384.768V412H573.235V363.251H579.485V371.911Z" fill="#EEBC7A"/>
<line x1="643" y1="384.5" x2="786" y2="384.5" stroke="#EEBC7A" stroke-width="5"/>
<line x1="-2.18557e-07" y1="384.5" x2="134" y2="384.5" stroke="#EEBC7A" stroke-width="5"/>
<g clip-path="url(#clip0_3_111)">
<path d="M106.063 0C152.425 0 186.873 12.3151 209.406 36.9452C231.94 61.3016 243.207 96.3312 243.207 142.034C243.207 171.863 237.638 197.999 226.501 220.44C215.623 242.607 199.693 259.848 178.714 272.162C157.735 284.478 132.352 290.636 102.566 290.636C98.6814 290.636 93.5012 290.499 87.0261 290.225C80.5508 289.952 73.8167 289.814 66.8236 289.814C60.0894 289.541 53.8733 289.404 48.1752 289.404C39.1099 289.404 30.1742 289.541 21.368 289.814C12.5618 289.814 5.43913 290.088 0 290.636V282.426C8.80621 281.878 15.4108 280.783 19.814 279.141C24.476 277.5 27.5842 274.216 29.1382 269.289C30.6923 264.363 31.4693 256.975 31.4693 247.122V43.5133C31.4693 33.3874 30.6923 25.9984 29.1382 21.3461C27.5842 16.4201 24.476 13.136 19.814 11.4941C15.4108 9.57837 8.80621 8.4837 0 8.21003V0C5.43913 0.273664 12.5618 0.684162 21.368 1.23149C30.1742 1.50515 38.8509 1.50515 47.3982 1.23149C56.4634 0.957826 66.694 0.684162 78.0903 0.410496C89.4866 0.136832 98.8108 0 106.063 0ZM96.3503 7.38902C84.436 7.38902 76.6658 9.7152 73.0397 14.3676C69.4136 19.0199 67.6006 28.4615 67.6006 42.6922V247.943C67.6006 262.174 69.4136 271.615 73.0397 276.268C76.9248 280.921 84.8246 283.247 96.7387 283.247C124.971 283.247 146.856 277.909 162.397 267.237C177.937 256.29 188.815 240.417 195.032 219.619C201.248 198.82 204.356 173.506 204.356 143.676C204.356 113.025 200.859 87.7106 193.866 67.7328C187.132 47.4814 175.865 32.4296 160.065 22.5776C144.526 12.4519 123.287 7.38902 96.3503 7.38902ZM376.413 0V8.21003C367.608 8.4837 360.873 9.57837 356.212 11.4941C351.808 13.136 348.829 16.4201 347.276 21.3461C345.721 25.9984 344.945 33.3874 344.945 43.5133V247.122C344.945 256.975 345.721 264.363 347.276 269.289C348.829 274.216 351.808 277.5 356.212 279.141C360.873 280.783 367.608 281.878 376.413 282.426V290.636C370.457 290.088 362.945 289.814 353.88 289.814C345.075 289.541 336.139 289.404 327.073 289.404C316.971 289.404 307.518 289.541 298.712 289.814C289.906 289.814 282.784 290.088 277.344 290.636V282.426C286.15 281.878 292.755 280.783 297.158 279.141C301.82 277.5 304.928 274.216 306.482 269.289C308.037 264.363 308.813 256.975 308.813 247.122V43.5133C308.813 33.3874 308.037 25.9984 306.482 21.3461C304.928 16.4201 301.82 13.136 297.158 11.4941C292.755 9.57837 286.15 8.4837 277.344 8.21003V0C282.784 0.273664 289.906 0.54733 298.712 0.820994C307.518 1.09465 316.971 1.23149 327.073 1.23149C336.139 1.23149 345.075 1.09465 353.88 0.820994C362.945 0.54733 370.457 0.273664 376.413 0ZM515.06 0C561.422 0 595.869 12.3151 618.403 36.9452C640.936 61.3016 652.203 96.3312 652.203 142.034C652.203 171.863 646.635 197.999 635.497 220.44C624.619 242.607 608.691 259.848 587.711 272.162C566.732 284.478 541.349 290.636 511.563 290.636C507.679 290.636 502.498 290.499 496.023 290.225C489.548 289.952 482.813 289.814 475.821 289.814C469.086 289.541 462.87 289.404 457.172 289.404C448.107 289.404 439.171 289.541 430.365 289.814C421.559 289.814 381.853 290.088 376.413 290.636V282.426C385.219 281.878 424.408 280.783 428.811 279.141C433.473 277.5 436.581 274.216 438.135 269.289C439.69 264.363 440.466 256.975 440.466 247.122V43.5133C440.466 33.3874 439.69 25.9984 438.135 21.3461C436.581 16.4201 433.473 13.136 428.811 11.4941C424.408 9.57837 385.219 8.4837 376.413 8.21003V0C381.853 0.273664 421.559 0.684162 430.365 1.23149C439.171 1.50515 447.848 1.50515 456.395 1.23149C465.46 0.957826 475.691 0.684162 487.088 0.410496C498.484 0.136832 507.807 0 515.06 0ZM505.347 7.38902C493.433 7.38902 485.662 9.7152 482.037 14.3676C478.411 19.0199 476.598 28.4615 476.598 42.6922V247.943C476.598 262.174 478.411 271.615 482.037 276.268C485.922 280.921 493.821 283.247 505.736 283.247C533.967 283.247 555.854 277.909 571.394 267.237C586.935 256.29 597.813 240.417 604.029 219.619C610.244 198.82 613.353 173.506 613.353 143.676C613.353 113.025 609.856 87.7106 602.863 67.7328C596.129 47.4814 584.862 32.4296 569.063 22.5776C553.522 12.4519 532.284 7.38902 505.347 7.38902ZM785.411 0V8.21003C776.605 8.4837 769.87 9.57837 765.208 11.4941C760.806 13.136 757.827 16.4201 756.272 21.3461C754.719 25.9984 753.941 33.3874 753.941 43.5133V247.122C753.941 256.975 754.719 264.363 756.272 269.289C757.827 274.216 760.806 277.5 765.208 279.141C769.87 280.783 776.605 281.878 785.411 282.426V290.636C779.454 290.088 771.943 289.814 762.877 289.814C754.071 289.541 745.135 289.404 736.07 289.404C725.969 289.404 716.515 289.541 707.709 289.814C698.902 289.814 691.78 290.088 686.341 290.636V282.426C695.147 281.878 701.751 280.783 706.155 279.141C710.817 277.5 713.925 274.216 715.479 269.289C717.033 264.363 717.81 256.975 717.81 247.122V43.5133C717.81 33.3874 717.033 25.9984 715.479 21.3461C713.925 16.4201 710.817 13.136 706.155 11.4941C701.751 9.57837 695.147 8.4837 686.341 8.21003V0C691.78 0.273664 698.902 0.54733 707.709 0.820994C716.515 1.09465 725.969 1.23149 736.07 1.23149C745.135 1.23149 754.071 1.09465 762.877 0.820994C771.943 0.54733 779.454 0.273664 785.411 0Z" fill="white"/>
</g>
<defs>
<clipPath id="clip0_3_111">
<rect width="786" height="291" fill="white"/>
</clipPath>
</defs>
</svg>
