<svg width="554" height="373" viewBox="0 0 554 373" fill="none" xmlns="http://www.w3.org/2000/svg">
<g clip-path="url(#clip0_339_811)">
<path fill-rule="evenodd" clip-rule="evenodd" d="M320.739 0.199655C335.661 0.373926 351.633 5.85725 353.909 6.52446C354.743 6.89417 355.577 7.26512 356.41 7.63482C362.528 9.76965 386.451 16.4978 412.751 45.2401C432.188 65.8303 439.831 90.5022 441.187 94.8838C448.541 114.161 448.791 133.773 448.835 137.216C449.099 157.898 447.601 157.792 447.66 159.583C447.719 161.367 451.919 159.918 452.268 159.797C467.269 154.618 491.879 157.141 508.732 168.331C511.81 170.374 530.872 183.032 540.416 202.117C541.163 203.375 541.909 204.634 542.656 205.891C545.91 212.028 546.052 211.912 549.628 224.228C549.956 225.096 550.285 225.965 550.613 226.832C557.355 256.343 549.736 274.345 549.102 276.559C548.765 277.418 548.427 278.277 548.091 279.136C547.265 281.393 541.957 295.901 533.195 305.159C523.539 315.362 513.434 319.406 512.29 319.896C509.095 321.264 496.338 324.355 490.302 323.875C481.754 323.197 477.835 321.767 476.801 321.389C470.137 318.958 453.001 353.672 372.327 367.289C369.408 367.944 369.47 367.812 363.727 368.539C359.223 368.919 359.249 368.893 358.863 368.949C358.107 369.06 358.283 369.338 357.527 369.449L356.365 369.932C336.67 370.916 336.862 372.338 317.05 372.498C278.535 372.81 278.317 370.402 251.942 368.634C250.712 368.229 249.484 367.824 248.254 367.418C237.517 367.33 202.062 357.991 199.103 357.505C197.893 357.021 196.683 356.536 195.474 356.051C179.008 351.77 191.881 341.924 194.236 341.685C196.96 341.408 220.183 348.317 222.415 348.98C224.572 349.478 238.677 352.732 249.521 354.537L251.931 355.045C257.066 355.055 257.523 355.196 257.988 355.34C268.494 358.586 323.89 360.368 345.313 357.618C347.088 357.495 350.53 357.257 367.393 354.812C411.014 348.49 450.435 326.02 458.969 317.272C459.945 316.272 455.755 314.404 451.12 311.226C450.11 310.278 450.184 310.38 449.061 309.625C439.242 304.702 431.022 287.639 429.947 285.411L429.211 283.981C418.003 240.82 456.325 229.067 466.882 232.089C480.585 236.013 481.164 235.583 491.003 246.048C494.148 251.917 494.219 251.787 496.564 257.94C500.252 269.115 497.855 284.799 490.544 297.92C485.297 307.341 484.843 307.033 484.398 307.856C481.166 313.842 504.211 309.565 509.761 306.128C525.981 296.082 536.466 283.007 539.442 251.738L539.57 249.249C538.767 242.93 539.121 243.006 538.353 236.781C535.278 217.156 522.537 199.881 519.896 196.87C513.618 190.584 513.683 190.564 513.139 190.02C500.39 177.287 483.041 172.66 480.419 172.435C454.171 170.187 442.807 180.191 439.785 181.756C432.702 185.422 427.05 179.621 429.091 173.396C432.319 163.553 431.357 163.404 433.687 153.394C433.842 140.817 437.022 126.077 425.95 93.8569C424.094 88.6785 421.995 84.9603 420.806 82.1844C409.987 61.964 400.854 53.711 399.542 52.4014C396.234 49.1525 396.256 49.2496 393.34 46.221C392.203 45.2289 391.064 44.2368 389.926 43.246C378.299 34.9195 369.615 26.003 339.231 17.5297C329.648 14.8571 320.457 15.2517 319.573 14.9903C312.269 12.8331 259.039 11.9518 220.62 53.2491C200.659 74.7057 194.771 94.4407 192.607 99.7398C183.921 127.881 188.319 136.86 175.744 134.76C164.725 132.92 164.731 134.193 153.65 134.842C152.384 135.271 141.059 139.111 137.727 139.877C136.124 140.712 136.144 140.65 135.308 141.203C130.988 143.728 124.978 146.128 117.258 153.928C111.949 159.292 112.529 159.68 107.627 165.347C94.4311 180.605 91.9713 210.767 92.5254 211.784C93.8684 214.247 120.212 216.448 127.66 230.648C127.054 233.741 127.381 233.676 127.316 233.933C126.908 234.773 126.944 234.689 126.547 235.518C119.333 250.624 113.357 217.429 62.7281 229.44L61.2868 229.955C33.6336 240.34 25.754 256.137 20.5811 265.268C20.3096 265.747 20.038 266.225 19.7665 266.704L18.3142 270.337C17.9615 271.192 17.6089 272.047 17.2562 272.902C13.9879 286.458 14.9119 286.615 14.5813 287.776C12.5392 294.946 14.6035 294.955 14.8836 302.77C15.1785 310.983 22.2104 323.399 23.5054 325.093C49.2947 358.838 90.7635 351.344 102.041 350.185C180.696 342.104 264.608 250.12 333.013 277.91C368.038 291.818 361.609 322.011 356.784 325.663C351.767 329.462 351.329 327.038 349.039 325.147C348.579 324.767 347.533 323.903 350.149 317.705C350.494 313.918 350.492 314.005 350.073 310.254C348.027 298.208 332.905 282.206 294.903 286.322C290.364 286.97 270.014 292.018 256.65 298.622C226.884 312.233 227.527 313.679 201.64 326.599L200.227 327.477C195.96 330.206 196.084 330.179 191.592 332.402C150.88 352.548 144.685 355.793 110.633 362.6C80.3969 369.483 16.6517 367.151 1.81389 310.097C0.110902 303.681 0.289065 299.734 0.247289 299.025C-2.27401 265.468 14.4032 232.628 55.3436 216.912C61.352 214.465 61.4638 214.998 76.1677 211.744C79.0895 211.097 78.646 199.453 78.646 199.452C83.3445 171.535 95.7225 157.053 96.3614 156.211C96.6809 155.759 97.0004 155.306 97.3198 154.853C117.34 129.406 134.754 123.764 156.092 119.817C157.273 119.74 157.102 119.299 170.818 118.387C173.772 118.19 172.68 116.766 174.697 109.869C175.077 108.203 175.457 106.536 175.838 104.871C176.826 101.543 183.184 80.138 193.097 65.112C238.841 -4.22311 299.451 -0.295774 320.739 0.199655ZM460.812 244.353C463.279 244.919 463.198 244.933 465.718 244.361C484.664 246.276 488.344 265.655 485.617 275.458C484.215 280.497 484.736 280.56 483.3 285.528C480.479 283.634 480.546 283.436 480.259 283.485C478.03 283.879 481.789 287.702 482.059 287.975C481.386 289.426 477.397 298.013 471.461 304.872C466.532 310.57 445.071 293.283 440.575 280.602C434.34 263.013 443.811 246.814 457.163 244.523C458.363 244.318 459.612 244.559 460.812 244.353ZM483.3 285.528C482.699 286.865 482.783 286.764 482.059 287.975C481.789 287.702 478.03 283.879 480.259 283.485C480.546 283.436 480.479 283.634 483.3 285.528Z" fill="white" fill-opacity="0.99"/>
<path fill-rule="evenodd" clip-rule="evenodd" d="M490.264 84.7998C520.12 73.4311 509.696 48.0248 513.853 46.6306C519.188 44.8418 513.253 68.5116 531.096 80.8426C538.566 86.0047 548.959 86.9931 550.59 87.1475C554.951 87.562 553.16 89.698 552.972 89.9221C552.728 90.2134 552.11 89.8686 551.865 90.1599C545.045 91.0711 534.703 90.4275 524.647 101.066C515.421 110.825 518.404 134.389 513.97 129.407C512.458 127.709 512.464 120.562 512.464 119.782C512.16 118.92 511.855 118.058 511.55 117.196C511.376 115.994 511.2 114.793 511.026 113.591C510.71 112.734 510.394 111.878 510.078 111.021C506.183 103.332 502.765 92.4142 476.767 89.9271C476.74 88.0039 475.979 87.2184 477.846 87.0429C478.546 86.9769 478.477 86.8761 486.595 86.1031C487.818 85.6687 489.042 85.2342 490.264 84.7998Z" fill="white" fill-opacity="0.98"/>
<path fill-rule="evenodd" clip-rule="evenodd" d="M39.9872 179.368L39.712 180.833C39.7304 181.386 40.0167 189.485 36.8356 187.096C36.4928 186.839 37.0531 182.403 34.0108 174.762C29.7116 163.966 14.6391 165.719 17.2648 162.128C17.4614 161.858 24.567 162.211 30.681 157.043C36.811 151.862 35.2346 145.739 34.9741 144.728C34.8721 144.335 35.2002 144.414 36.1488 139.776C36.7189 136.992 39.4675 137.838 39.6506 142.141C40.6864 166.489 58.9216 158.143 58.0553 163.422C57.6228 166.067 52.7744 163.892 46.9724 167.524C43.4522 169.727 40.3595 178.331 39.9872 179.368Z" fill="white" fill-opacity="0.96"/>
<path fill-rule="evenodd" clip-rule="evenodd" d="M540.416 202.117L542.28 201.946C542.445 201.961 543.054 200.815 544.117 202.108C544.374 202.42 544.648 204.239 544.527 204.418C544.084 205.082 543.099 205.229 542.656 205.891C541.909 204.634 541.163 203.375 540.416 202.117Z" fill="white" fill-opacity="0.09"/>
<path fill-rule="evenodd" clip-rule="evenodd" d="M483.3 285.528C482.699 286.865 482.783 286.764 482.059 287.975C481.789 287.702 478.03 283.879 480.259 283.485C480.546 283.436 480.479 283.634 483.3 285.528Z" fill="white" fill-opacity="0.05"/>
<path fill-rule="evenodd" clip-rule="evenodd" d="M195.474 356.051C196.683 356.536 197.893 357.02 199.103 357.505C198.475 357.777 198.618 356.879 197.99 357.15C197.809 357.228 197.581 357.327 196.132 358.791C188.454 366.551 195.333 356.228 195.474 356.051Z" fill="white" fill-opacity="0.1"/>
<path fill-rule="evenodd" clip-rule="evenodd" d="M248.254 367.418C249.484 367.824 250.712 368.228 251.942 368.634C251.585 368.795 251.169 368.15 250.811 368.311C248.997 369.128 249.892 370.073 248.18 371.033C241.431 374.818 248.058 367.63 248.254 367.418Z" fill="white" fill-opacity="0.1"/>
<path fill-rule="evenodd" clip-rule="evenodd" d="M511.55 117.195C511.855 118.058 512.16 118.919 512.464 119.782C510.675 121.501 510.249 123.162 508.963 120.95C508.572 120.276 509.765 119.028 511.55 117.195Z" fill="white" fill-opacity="0.06"/>
<path fill-rule="evenodd" clip-rule="evenodd" d="M249.521 354.537C249.693 354.283 251.268 351.949 251.995 351.606C257.792 348.865 252.119 354.846 251.931 355.045L249.521 354.537Z" fill="white" fill-opacity="0.07"/>
<path fill-rule="evenodd" clip-rule="evenodd" d="M449.061 309.625C450.184 310.381 450.11 310.279 451.12 311.226C450.613 311.655 450.238 312.229 449.73 312.659C448.601 313.616 448.23 313.921 447.532 312.626C447.405 312.39 447.642 312.411 449.061 309.625Z" fill="white" fill-opacity="0.07"/>
<path fill-rule="evenodd" clip-rule="evenodd" d="M137.727 139.877C144.055 146.651 135.481 141.341 135.308 141.203C136.144 140.65 136.123 140.712 137.727 139.877Z" fill="white" fill-opacity="0.04"/>
<path fill-rule="evenodd" clip-rule="evenodd" d="M97.3198 154.853C97.0003 155.306 96.6809 155.759 96.3614 156.211C94.2751 155.02 92.4898 155.621 93.673 153.509C94.9226 151.276 95.2986 153.234 97.3198 154.853Z" fill="white" fill-opacity="0.04"/>
<path fill-rule="evenodd" clip-rule="evenodd" d="M18.314 270.336C18.4799 270.694 17.7021 271.076 17.868 271.433C18.2157 272.181 21.5676 273.847 20.4729 274.94C20.2566 275.155 19.9126 275.499 17.2561 272.902C17.6087 272.047 17.9614 271.192 18.314 270.336Z" fill="white" fill-opacity="0.11"/>
<path fill-rule="evenodd" clip-rule="evenodd" d="M549.102 276.559C549.272 276.919 548.498 277.31 548.666 277.669C548.991 278.363 552.345 280.086 551.263 281.155C551.048 281.366 550.704 281.706 548.091 279.136C548.427 278.277 548.765 277.418 549.102 276.559Z" fill="white" fill-opacity="0.1"/>
<path fill-rule="evenodd" clip-rule="evenodd" d="M20.581 265.268C24.4551 268.183 22.381 269.096 22.0972 268.958C21.8638 268.846 21.924 268.791 19.7664 266.705C20.0379 266.225 20.3094 265.747 20.581 265.268Z" fill="white" fill-opacity="0.08"/>
<path fill-rule="evenodd" clip-rule="evenodd" d="M350.073 310.253C350.492 314.005 350.494 313.918 350.149 317.705C348.863 314.011 349.089 314.004 350.073 310.253Z" fill="white" fill-opacity="0.12"/>
<path fill-rule="evenodd" clip-rule="evenodd" d="M510.078 111.021C510.394 111.878 510.71 112.734 511.026 113.591C508.784 116.049 508.302 115.739 508.061 115.584C506.896 114.834 510.399 112.417 510.53 112.133C510.699 111.771 509.91 111.385 510.078 111.021Z" fill="white" fill-opacity="0.1"/>
<path fill-rule="evenodd" clip-rule="evenodd" d="M429.211 283.981L429.947 285.411C427.867 287.456 427.926 287.51 427.701 287.62C427.42 287.756 425.435 286.771 429.211 283.981Z" fill="white" fill-opacity="0.04"/>
<path fill-rule="evenodd" clip-rule="evenodd" d="M62.728 229.44C64.7922 231.506 64.8475 231.444 64.9569 231.672C65.1117 231.992 64.1349 233.804 61.2867 229.955L62.728 229.44Z" fill="white" fill-opacity="0.05"/>
<path fill-rule="evenodd" clip-rule="evenodd" d="M201.64 326.599C203.651 328.688 203.703 328.628 203.812 328.855C203.945 329.135 203.093 331.206 200.227 327.477L201.64 326.599Z" fill="white" fill-opacity="0.04"/>
<path fill-rule="evenodd" clip-rule="evenodd" d="M127.66 230.647C127.795 230.839 129.339 233.051 129.339 233.051C130.017 234.601 128.885 234.026 127.316 233.932C127.381 233.676 127.054 233.741 127.66 230.647Z" fill="white" fill-opacity="0.09"/>
<path fill-rule="evenodd" clip-rule="evenodd" d="M460.812 244.353L465.718 244.361C463.198 244.933 463.279 244.919 460.812 244.353Z" fill="white" fill-opacity="0.17"/>
</g>
<defs>
<clipPath id="clip0_339_811">
<rect width="554" height="372.868" fill="white"/>
</clipPath>
</defs>
</svg>
