<svg width="432" height="272" viewBox="0 0 432 272" fill="none" xmlns="http://www.w3.org/2000/svg">
<path d="M236.978 6.99292L163.942 96.8447H129.86L151.87 76.3019H129.86L98.312 108.583H215.223L24.8633 271.943L70.705 152.288H108.583L88.0406 173.147H108.583L129.86 135.971L14.7626 108.583L201.76 24.2113L236.978 6.99292Z" fill="#FBFCFC"/>
<path d="M330.216 20.2014H246.302L209.784 61.3813H310.791C310.791 61.3813 319.803 64.9411 322.446 69.928C325.268 75.2526 324.079 79.5577 322.48 85.3454L322.446 85.4676C320.361 93.0155 316.989 96.9982 310.791 101.784C305.083 106.192 293.698 108.777 293.698 108.777H239.309L194.245 146.072H242.417L293.698 194.245H369.842L310.791 142.187L330.216 135.971C330.216 135.971 359.067 124.144 369.842 108.777C378.987 95.7344 382.782 85.8492 382.273 69.928C381.811 55.4437 379.693 45.5921 369.842 34.964C358.615 22.8528 330.216 20.2014 330.216 20.2014Z" fill="#FBFCFC"/>
</svg>
