<svg width="27" height="28" viewBox="0 0 27 28" fill="none" xmlns="http://www.w3.org/2000/svg">
<path fill-rule="evenodd" clip-rule="evenodd" d="M1.56926 5.51474L12.488 0.137769C12.488 0.137769 12.867 0.00181613 13.1198 -0.00413877C13.4151 -0.0110934 13.8598 0.151685 13.8598 0.151685L24.4077 5.74642C24.4077 5.74642 24.8401 5.80229 24.8871 6.01084C24.9256 6.18151 24.6976 6.41679 24.6976 6.41679L13.7361 12.3495C13.7361 12.3495 13.4473 12.6303 13.214 12.6409C12.9553 12.6526 12.6238 12.3382 12.6238 12.3382L1.56249 6.1821C1.56249 6.1821 1.06936 5.99957 1.12172 5.76975C1.16641 5.57362 1.56926 5.51474 1.56926 5.51474ZM14.0012 4.4914L16.6193 5.92697L12.2933 8.36739L8.60796 6.14233L14.0012 4.4914Z" fill="white"/>
<path fill-rule="evenodd" clip-rule="evenodd" d="M11.6436 12.718L0.483302 6.85982C0.200763 6.71151 0.04424 7.09465 0.00129575 7.30475C0.0136553 11.3585 0.0309583 19.607 0.00129575 20.1706C-0.0283657 20.7342 0.458584 21.0975 0.705766 21.2088L4.04273 22.8772L4.22812 19.4661C4.85843 19.7998 6.16355 20.5191 6.34153 20.7268L8.71448 25.7322L12.1256 27.6231L12.5334 27.4007L12.3481 26.7704L10.2717 22.0986L12.1256 22.8772H12.7188V22.3582C12.6941 19.8863 12.6595 14.7721 12.7188 14.0899C12.7782 13.4077 12.0267 12.8911 11.6436 12.718ZM8.64032 18.428V16.1292C8.59089 15.9561 8.37337 15.5656 7.89878 15.3876C7.42419 15.2096 5.25392 14.0281 4.22812 13.4596V15.7955C4.2034 15.9438 4.30227 16.3146 4.89551 16.6112C5.48875 16.9078 7.63924 17.946 8.64032 18.428Z" fill="white"/>
<path fill-rule="evenodd" clip-rule="evenodd" d="M13.9874 13.1308L16.9696 11.5666L17.3774 11.5707L19.3611 13.4078L21.7794 8.94569L25.7297 6.98348L26.0233 7.2831C25.9429 11.5588 25.8035 20.177 25.8898 20.4449C25.9761 20.7127 25.5495 21.0965 25.3254 21.2549C24.5299 21.6918 22.8643 22.6167 22.5656 22.8213C22.2669 23.0259 22.1216 22.7303 22.0863 22.5569L22.1581 15.4755L19.7432 19.6039L17.3172 17.5028L17.2409 25.0291C17.2349 25.6223 16.8351 26.0385 16.636 26.1725C16.0766 26.4881 14.7936 27.2291 14.1365 27.6674C13.4795 28.1056 13.3944 27.7216 13.434 27.4748C13.5131 23.3351 13.6507 14.8849 13.5686 14.2018C13.4866 13.5187 13.8136 13.2032 13.9874 13.1308Z" fill="white"/>
</svg>
