<svg width="103" height="28" viewBox="0 0 103 28" fill="none" xmlns="http://www.w3.org/2000/svg">
<g clip-path="url(#clip0_79_2185)">
<path d="M44.2132 18.2868H39.4592L38.5666 21.178H35.0739L40.0995 7.3041H43.5922L48.5985 21.178H45.1057L44.2132 18.2868ZM40.2547 15.6284H43.437L41.8653 10.5058H41.8265L40.2547 15.6284ZM55.368 11.2431H58.4727V20.2078C58.4727 23.4871 56.5905 24.6125 53.5829 24.6125C50.4394 24.6125 48.9841 22.9826 48.6348 21.3914H51.7395C51.9335 21.9347 52.4186 22.381 53.5053 22.381C54.9023 22.381 55.368 21.6437 55.368 19.9943V19.4122H55.3292C54.9412 19.9361 54.068 20.7123 52.6127 20.7123C50.0707 20.7123 48.4408 18.6943 48.4408 15.8225C48.4408 12.9507 50.0707 10.9327 52.6127 10.9327C54.068 10.9327 54.9412 11.7088 55.3292 12.2327H55.368V11.2431ZM53.4276 18.3838C54.6889 18.3838 55.3098 17.433 55.3098 15.8225C55.3098 14.2119 54.6889 13.2611 53.4276 13.2611C52.1664 13.2611 51.5455 14.2119 51.5455 15.8225C51.5455 17.433 52.1664 18.3838 53.4276 18.3838ZM64.7841 19.16C65.8514 19.16 66.3559 18.6555 66.5499 18.1704H69.6352C69.0918 20.169 67.5395 21.4884 64.8424 21.4884C61.5437 21.4884 59.5451 19.3152 59.5451 16.2105C59.5451 13.1835 61.5049 10.9327 64.6677 10.9327C68.0634 10.9327 69.7904 13.4164 69.7904 17.0255H62.6497C62.6497 18.4226 63.6781 19.16 64.7841 19.16ZM64.6677 13.0671C63.4841 13.0671 62.6497 13.7656 62.6497 15.1433H66.6857C66.6857 13.7656 65.8514 13.0671 64.6677 13.0671ZM77.2526 10.9327C79.1736 10.9327 80.4737 12.1939 80.4737 14.4642V21.178H77.369V15.4538C77.369 13.9597 76.8451 13.4552 75.8167 13.4552C74.6331 13.4552 73.9539 14.0567 73.9539 15.4344V21.178H70.8493V11.2431H73.9539V12.679H73.9927C74.5166 11.767 75.4868 10.9327 77.2526 10.9327ZM88.3384 14.9493C88.2413 14.1537 87.8145 13.2611 86.5726 13.2611C85.2919 13.2611 84.574 14.3478 84.574 16.2105C84.574 18.0733 85.2725 19.16 86.5726 19.16C87.8145 19.16 88.2413 18.3256 88.3384 17.433H91.3848C91.2296 19.7809 89.4444 21.4884 86.592 21.4884C83.4485 21.4884 81.4693 19.3152 81.4693 16.2105C81.4693 13.1253 83.4485 10.9327 86.5144 10.9327C89.4056 10.9327 91.1325 12.6402 91.3848 14.9493H88.3384ZM101.771 11.2431L98.395 21.372C97.5412 23.9139 96.6098 24.6125 94.5141 24.6125C93.9902 24.6125 93.4275 24.5543 92.7872 24.4185V22.09H92.826C93.6798 22.284 94.3783 22.187 94.7082 21.6825C94.9992 21.2362 94.941 20.6153 94.6306 19.7421L91.3901 11.2431H94.4947L96.7456 17.7629H96.7844L98.6666 11.2431H101.771Z" fill="white"/>
<path fill-rule="evenodd" clip-rule="evenodd" d="M7.205 5.51474L18.1238 0.137769C18.1238 0.137769 18.5028 0.00181613 18.7556 -0.00413877C19.0508 -0.0110934 19.4956 0.151685 19.4956 0.151685L30.0435 5.74642C30.0435 5.74642 30.4758 5.80229 30.5228 6.01084C30.5613 6.18151 30.3333 6.41679 30.3333 6.41679L19.3718 12.3495C19.3718 12.3495 19.083 12.6303 18.8498 12.6409C18.591 12.6526 18.2596 12.3382 18.2596 12.3382L7.19823 6.1821C7.19823 6.1821 6.7051 5.99957 6.75747 5.76975C6.80215 5.57362 7.205 5.51474 7.205 5.51474ZM19.6369 4.4914L22.255 5.92697L17.9291 8.36739L14.2437 6.14233L19.6369 4.4914Z" fill="white"/>
<path fill-rule="evenodd" clip-rule="evenodd" d="M17.2793 12.718L6.11904 6.85982C5.83651 6.71151 5.67998 7.09465 5.63704 7.30475C5.6494 11.3585 5.6667 19.607 5.63704 20.1706C5.60738 20.7342 6.09433 21.0975 6.34151 21.2088L9.67847 22.8772L9.86386 19.4661C10.4942 19.7998 11.7993 20.5191 11.9773 20.7268L14.3502 25.7322L17.7613 27.6231L18.1692 27.4007L17.9838 26.7704L15.9075 22.0986L17.7613 22.8772H18.3546V22.3582C18.3299 19.8863 18.2953 14.7721 18.3546 14.0899C18.4139 13.4077 17.6625 12.8911 17.2793 12.718ZM14.2761 18.428V16.1292C14.2266 15.9561 14.0091 15.5656 13.5345 15.3876C13.0599 15.2096 10.8897 14.0281 9.86386 13.4596V15.7955C9.83914 15.9438 9.93801 16.3146 10.5313 16.6112C11.1245 16.9078 13.275 17.946 14.2761 18.428Z" fill="white"/>
<path fill-rule="evenodd" clip-rule="evenodd" d="M19.6231 13.1308L22.6053 11.5666L23.0132 11.5707L24.9968 13.4078L27.4151 8.94569L31.3655 6.98348L31.6591 7.2831C31.5786 11.5588 31.4393 20.177 31.5255 20.4449C31.6118 20.7127 31.1852 21.0965 30.9611 21.2549C30.1657 21.6918 28.5001 22.6167 28.2014 22.8213C27.9027 23.0259 27.7573 22.7303 27.722 22.5569L27.7939 15.4755L25.3789 19.6039L22.953 17.5028L22.8766 25.0291C22.8706 25.6223 22.4709 26.0385 22.2718 26.1725C21.7124 26.4881 20.4293 27.2291 19.7723 27.6674C19.1153 28.1056 19.0302 27.7216 19.0697 27.4748C19.1488 23.3351 19.2864 14.8849 19.2044 14.2018C19.1223 13.5187 19.4494 13.2032 19.6231 13.1308Z" fill="white"/>
</g>
<defs>
<clipPath id="clip0_79_2185">
<rect width="103" height="28" fill="white"/>
</clipPath>
</defs>
</svg>
