<svg width="25" height="38" viewBox="0 0 25 38" fill="none" xmlns="http://www.w3.org/2000/svg">
<path opacity="0.2" d="M19.5312 14.3125V23.6875C19.5312 25.1379 18.9551 26.5289 17.9295 27.5545C16.9039 28.5801 15.5129 29.1562 14.0625 29.1562H10.9375C9.4871 29.1562 8.0961 28.5801 7.07051 27.5545C6.04492 26.5289 5.46875 25.1379 5.46875 23.6875V14.3125C5.46875 12.8621 6.04492 11.4711 7.07051 10.4455C8.0961 9.41992 9.4871 8.84375 10.9375 8.84375H14.0625C15.5129 8.84375 16.9039 9.41992 17.9295 10.4455C18.9551 11.4711 19.5312 12.8621 19.5312 14.3125Z" fill="#60A447"/>
<path d="M14.0625 8.0625H10.9375C9.28045 8.06431 7.69179 8.72337 6.52008 9.89508C5.34837 11.0668 4.68931 12.6555 4.6875 14.3125V23.6875C4.68931 25.3445 5.34837 26.9332 6.52008 28.1049C7.69179 29.2766 9.28045 29.9357 10.9375 29.9375H14.0625C15.7195 29.9357 17.3082 29.2766 18.4799 28.1049C19.6516 26.9332 20.3107 25.3445 20.3125 23.6875V14.3125C20.3107 12.6555 19.6516 11.0668 18.4799 9.89508C17.3082 8.72337 15.7195 8.06431 14.0625 8.0625ZM18.75 23.6875C18.7487 24.9303 18.2544 26.1218 17.3756 27.0006C16.4968 27.8794 15.3053 28.3737 14.0625 28.375H10.9375C9.69469 28.3737 8.50316 27.8794 7.62436 27.0006C6.74557 26.1218 6.25129 24.9303 6.25 23.6875V14.3125C6.25129 13.0697 6.74557 11.8782 7.62436 10.9994C8.50316 10.1206 9.69469 9.62629 10.9375 9.625H14.0625C15.3053 9.62629 16.4968 10.1206 17.3756 10.9994C18.2544 11.8782 18.7487 13.0697 18.75 14.3125V23.6875ZM13.2812 12.75V17.4375C13.2812 17.6447 13.1989 17.8434 13.0524 17.9899C12.9059 18.1364 12.7072 18.2188 12.5 18.2188C12.2928 18.2188 12.0941 18.1364 11.9476 17.9899C11.8011 17.8434 11.7188 17.6447 11.7188 17.4375V12.75C11.7188 12.5428 11.8011 12.3441 11.9476 12.1976C12.0941 12.0511 12.2928 11.9688 12.5 11.9688C12.7072 11.9688 12.9059 12.0511 13.0524 12.1976C13.1989 12.3441 13.2812 12.5428 13.2812 12.75Z" fill="#A9FF00" fill-opacity="0.8"/>
</svg>
